<mxfile host="Electron" agent="Mozilla/5.0 (Windows NT 10.0; Win64; x64) AppleWebKit/537.36 (KHTML, like Gecko) draw.io/24.7.5 Chrome/126.0.6478.183 Electron/31.3.0 Safari/537.36" version="24.7.5">
  <diagram name="Page-1" id="8PhdGz_-7zzXywZBwcUH">
    <mxGraphModel dx="1290" dy="669" grid="1" gridSize="10" guides="1" tooltips="1" connect="1" arrows="1" fold="1" page="1" pageScale="1" pageWidth="1169" pageHeight="1654" math="0" shadow="0">
      <root>
        <mxCell id="0" />
        <mxCell id="1" parent="0" />
        <mxCell id="PFokcVfNQXhYJK-jh7E1-1" value="Produce&lt;br&gt;Project 3" style="rounded=0;whiteSpace=wrap;html=1;" parent="1" vertex="1">
          <mxGeometry x="370" y="80" width="60" height="40" as="geometry" />
        </mxCell>
        <mxCell id="PFokcVfNQXhYJK-jh7E1-3" value="Creating the Indexed Sequential File (First Program)" style="rounded=0;whiteSpace=wrap;html=1;" parent="1" vertex="1">
          <mxGeometry x="100" y="130" width="90" height="60" as="geometry" />
        </mxCell>
        <mxCell id="PFokcVfNQXhYJK-jh7E1-4" value="Add and/or update records to the created indexed file (Second Program" style="rounded=0;whiteSpace=wrap;html=1;" parent="1" vertex="1">
          <mxGeometry x="365" y="170" width="85" height="90" as="geometry" />
        </mxCell>
        <mxCell id="PFokcVfNQXhYJK-jh7E1-5" value="Modify report program from Project 2 (Third Program)" style="rounded=0;whiteSpace=wrap;html=1;" parent="1" vertex="1">
          <mxGeometry x="860" y="138" width="70" height="90" as="geometry" />
        </mxCell>
        <mxCell id="PFokcVfNQXhYJK-jh7E1-6" value="100" style="text;html=1;strokeColor=none;fillColor=none;align=center;verticalAlign=middle;whiteSpace=wrap;rounded=0;" parent="1" vertex="1">
          <mxGeometry x="390" y="60" width="60" height="30" as="geometry" />
        </mxCell>
        <mxCell id="PFokcVfNQXhYJK-jh7E1-7" value="201" style="text;html=1;strokeColor=none;fillColor=none;align=center;verticalAlign=middle;whiteSpace=wrap;rounded=0;" parent="1" vertex="1">
          <mxGeometry x="150" y="108" width="60" height="30" as="geometry" />
        </mxCell>
        <mxCell id="PFokcVfNQXhYJK-jh7E1-8" value="202" style="text;html=1;strokeColor=none;fillColor=none;align=center;verticalAlign=middle;whiteSpace=wrap;rounded=0;" parent="1" vertex="1">
          <mxGeometry x="390" y="150" width="60" height="30" as="geometry" />
        </mxCell>
        <mxCell id="PFokcVfNQXhYJK-jh7E1-9" value="203" style="text;html=1;strokeColor=none;fillColor=none;align=center;verticalAlign=middle;whiteSpace=wrap;rounded=0;" parent="1" vertex="1">
          <mxGeometry x="883" y="116" width="60" height="30" as="geometry" />
        </mxCell>
        <mxCell id="PFokcVfNQXhYJK-jh7E1-10" value="&amp;nbsp;Open files" style="rounded=0;whiteSpace=wrap;html=1;" parent="1" vertex="1">
          <mxGeometry x="30" y="242.5" width="60" height="20" as="geometry" />
        </mxCell>
        <mxCell id="PFokcVfNQXhYJK-jh7E1-11" value="Write the indexed file" style="rounded=0;whiteSpace=wrap;html=1;" parent="1" vertex="1">
          <mxGeometry x="100" y="240" width="60" height="50" as="geometry" />
        </mxCell>
        <mxCell id="PFokcVfNQXhYJK-jh7E1-12" value="" style="endArrow=none;html=1;rounded=0;entryX=0.5;entryY=1;entryDx=0;entryDy=0;" parent="1" target="PFokcVfNQXhYJK-jh7E1-1" edge="1">
          <mxGeometry width="50" height="50" relative="1" as="geometry">
            <mxPoint x="399.921875" y="120.9375" as="sourcePoint" />
            <mxPoint x="410" y="310" as="targetPoint" />
          </mxGeometry>
        </mxCell>
        <mxCell id="PFokcVfNQXhYJK-jh7E1-13" value="" style="endArrow=none;html=1;rounded=0;entryX=0;entryY=1;entryDx=0;entryDy=0;" parent="1" target="PFokcVfNQXhYJK-jh7E1-1" edge="1">
          <mxGeometry width="50" height="50" relative="1" as="geometry">
            <mxPoint x="190" y="160" as="sourcePoint" />
            <mxPoint x="410" y="310" as="targetPoint" />
          </mxGeometry>
        </mxCell>
        <mxCell id="PFokcVfNQXhYJK-jh7E1-15" value="" style="endArrow=none;html=1;rounded=0;exitX=0.5;exitY=0;exitDx=0;exitDy=0;entryX=1;entryY=1;entryDx=0;entryDy=0;" parent="1" source="PFokcVfNQXhYJK-jh7E1-5" target="PFokcVfNQXhYJK-jh7E1-1" edge="1">
          <mxGeometry width="50" height="50" relative="1" as="geometry">
            <mxPoint x="360" y="360" as="sourcePoint" />
            <mxPoint x="410" y="310" as="targetPoint" />
          </mxGeometry>
        </mxCell>
        <mxCell id="PFokcVfNQXhYJK-jh7E1-16" value="" style="endArrow=none;html=1;rounded=0;exitX=0.5;exitY=0;exitDx=0;exitDy=0;entryX=0;entryY=1;entryDx=0;entryDy=0;" parent="1" source="PFokcVfNQXhYJK-jh7E1-10" target="PFokcVfNQXhYJK-jh7E1-3" edge="1">
          <mxGeometry width="50" height="50" relative="1" as="geometry">
            <mxPoint x="360" y="360" as="sourcePoint" />
            <mxPoint x="410" y="310" as="targetPoint" />
          </mxGeometry>
        </mxCell>
        <mxCell id="PFokcVfNQXhYJK-jh7E1-17" value="" style="endArrow=none;html=1;rounded=0;exitX=0.5;exitY=0;exitDx=0;exitDy=0;entryX=0.25;entryY=1;entryDx=0;entryDy=0;" parent="1" source="PFokcVfNQXhYJK-jh7E1-11" target="PFokcVfNQXhYJK-jh7E1-3" edge="1">
          <mxGeometry width="50" height="50" relative="1" as="geometry">
            <mxPoint x="360" y="360" as="sourcePoint" />
            <mxPoint x="130" y="290" as="targetPoint" />
          </mxGeometry>
        </mxCell>
        <mxCell id="PFokcVfNQXhYJK-jh7E1-20" value="Close files" style="rounded=0;whiteSpace=wrap;html=1;" parent="1" vertex="1">
          <mxGeometry x="670" y="335.5" width="57.5" height="25" as="geometry" />
        </mxCell>
        <mxCell id="PFokcVfNQXhYJK-jh7E1-23" value="Open files" style="rounded=0;whiteSpace=wrap;html=1;" parent="1" vertex="1">
          <mxGeometry x="157" y="336" width="60" height="20" as="geometry" />
        </mxCell>
        <mxCell id="PFokcVfNQXhYJK-jh7E1-24" value="Receive stock symbol from user" style="rounded=0;whiteSpace=wrap;html=1;" parent="1" vertex="1">
          <mxGeometry x="300" y="325" width="80" height="45" as="geometry" />
        </mxCell>
        <mxCell id="PFokcVfNQXhYJK-jh7E1-25" value="Load Table" style="rounded=0;whiteSpace=wrap;html=1;" parent="1" vertex="1">
          <mxGeometry x="225" y="336" width="70" height="21.25" as="geometry" />
        </mxCell>
        <mxCell id="PFokcVfNQXhYJK-jh7E1-26" value="Write (Add record) or ReWrite (Update record" style="rounded=0;whiteSpace=wrap;html=1;" parent="1" vertex="1">
          <mxGeometry x="562" y="330" width="88" height="70" as="geometry" />
        </mxCell>
        <mxCell id="PFokcVfNQXhYJK-jh7E1-30" value="" style="endArrow=none;html=1;rounded=0;entryX=0.5;entryY=1;entryDx=0;entryDy=0;" parent="1" target="PFokcVfNQXhYJK-jh7E1-1" edge="1">
          <mxGeometry width="50" height="50" relative="1" as="geometry">
            <mxPoint x="400" y="170" as="sourcePoint" />
            <mxPoint x="398.75" y="150" as="targetPoint" />
          </mxGeometry>
        </mxCell>
        <mxCell id="PFokcVfNQXhYJK-jh7E1-31" value="" style="endArrow=none;html=1;rounded=0;exitX=0.829;exitY=-0.01;exitDx=0;exitDy=0;exitPerimeter=0;entryX=1;entryY=0.5;entryDx=0;entryDy=0;" parent="1" source="PFokcVfNQXhYJK-jh7E1-20" target="PFokcVfNQXhYJK-jh7E1-4" edge="1">
          <mxGeometry width="50" height="50" relative="1" as="geometry">
            <mxPoint x="290" y="360" as="sourcePoint" />
            <mxPoint x="360" y="210" as="targetPoint" />
          </mxGeometry>
        </mxCell>
        <mxCell id="PFokcVfNQXhYJK-jh7E1-32" value="" style="endArrow=none;html=1;rounded=0;exitX=0.5;exitY=0;exitDx=0;exitDy=0;entryX=0.1;entryY=1.003;entryDx=0;entryDy=0;entryPerimeter=0;" parent="1" source="PFokcVfNQXhYJK-jh7E1-23" target="PFokcVfNQXhYJK-jh7E1-4" edge="1">
          <mxGeometry width="50" height="50" relative="1" as="geometry">
            <mxPoint x="290" y="360" as="sourcePoint" />
            <mxPoint x="340" y="310" as="targetPoint" />
          </mxGeometry>
        </mxCell>
        <mxCell id="PFokcVfNQXhYJK-jh7E1-33" value="" style="endArrow=none;html=1;rounded=0;exitX=0.5;exitY=0;exitDx=0;exitDy=0;entryX=0.5;entryY=1;entryDx=0;entryDy=0;" parent="1" source="PFokcVfNQXhYJK-jh7E1-25" target="PFokcVfNQXhYJK-jh7E1-4" edge="1">
          <mxGeometry width="50" height="50" relative="1" as="geometry">
            <mxPoint x="290" y="360" as="sourcePoint" />
            <mxPoint x="340" y="310" as="targetPoint" />
          </mxGeometry>
        </mxCell>
        <mxCell id="PFokcVfNQXhYJK-jh7E1-34" value="" style="endArrow=none;html=1;rounded=0;exitX=0.5;exitY=0;exitDx=0;exitDy=0;entryX=0.5;entryY=1;entryDx=0;entryDy=0;" parent="1" source="PFokcVfNQXhYJK-jh7E1-24" target="PFokcVfNQXhYJK-jh7E1-4" edge="1">
          <mxGeometry width="50" height="50" relative="1" as="geometry">
            <mxPoint x="500" y="360" as="sourcePoint" />
            <mxPoint x="550" y="310" as="targetPoint" />
          </mxGeometry>
        </mxCell>
        <mxCell id="PFokcVfNQXhYJK-jh7E1-35" value="" style="endArrow=none;html=1;rounded=0;exitX=0.5;exitY=0;exitDx=0;exitDy=0;entryX=1;entryY=0.75;entryDx=0;entryDy=0;" parent="1" source="PFokcVfNQXhYJK-jh7E1-26" target="PFokcVfNQXhYJK-jh7E1-4" edge="1">
          <mxGeometry width="50" height="50" relative="1" as="geometry">
            <mxPoint x="540" y="360" as="sourcePoint" />
            <mxPoint x="590" y="310" as="targetPoint" />
          </mxGeometry>
        </mxCell>
        <mxCell id="PFokcVfNQXhYJK-jh7E1-36" value="301" style="text;html=1;strokeColor=none;fillColor=none;align=center;verticalAlign=middle;whiteSpace=wrap;rounded=0;" parent="1" vertex="1">
          <mxGeometry x="20" y="220" width="60" height="30" as="geometry" />
        </mxCell>
        <mxCell id="PFokcVfNQXhYJK-jh7E1-37" value="302" style="text;html=1;strokeColor=none;fillColor=none;align=center;verticalAlign=middle;whiteSpace=wrap;rounded=0;" parent="1" vertex="1">
          <mxGeometry x="81" y="219" width="60" height="30" as="geometry" />
        </mxCell>
        <mxCell id="PFokcVfNQXhYJK-jh7E1-40" value="304" style="text;html=1;strokeColor=none;fillColor=none;align=center;verticalAlign=middle;whiteSpace=wrap;rounded=0;" parent="1" vertex="1">
          <mxGeometry x="142" y="313" width="60" height="30" as="geometry" />
        </mxCell>
        <mxCell id="PFokcVfNQXhYJK-jh7E1-41" value="305" style="text;html=1;strokeColor=none;fillColor=none;align=center;verticalAlign=middle;whiteSpace=wrap;rounded=0;" parent="1" vertex="1">
          <mxGeometry x="215" y="314" width="60" height="30" as="geometry" />
        </mxCell>
        <mxCell id="PFokcVfNQXhYJK-jh7E1-42" value="306" style="text;html=1;strokeColor=none;fillColor=none;align=center;verticalAlign=middle;whiteSpace=wrap;rounded=0;" parent="1" vertex="1">
          <mxGeometry x="292" y="302.5" width="60" height="30" as="geometry" />
        </mxCell>
        <mxCell id="PFokcVfNQXhYJK-jh7E1-43" value="309" style="text;html=1;strokeColor=none;fillColor=none;align=center;verticalAlign=middle;whiteSpace=wrap;rounded=0;" parent="1" vertex="1">
          <mxGeometry x="595" y="309" width="60" height="30" as="geometry" />
        </mxCell>
        <mxCell id="PFokcVfNQXhYJK-jh7E1-44" value="310" style="text;html=1;strokeColor=none;fillColor=none;align=center;verticalAlign=middle;whiteSpace=wrap;rounded=0;" parent="1" vertex="1">
          <mxGeometry x="650" y="314" width="60" height="30" as="geometry" />
        </mxCell>
        <mxCell id="3sp6UGT6wka-jNeahweP-1" value="Read Portfolio file. If given Stock symbol exists, update record, if not, add a record to the file" style="rounded=0;whiteSpace=wrap;html=1;" parent="1" vertex="1">
          <mxGeometry x="388" y="318.75" width="85" height="101.25" as="geometry" />
        </mxCell>
        <mxCell id="3sp6UGT6wka-jNeahweP-2" value="" style="endArrow=none;html=1;rounded=0;exitX=0.5;exitY=0;exitDx=0;exitDy=0;entryX=0.5;entryY=1;entryDx=0;entryDy=0;" parent="1" source="3sp6UGT6wka-jNeahweP-1" target="PFokcVfNQXhYJK-jh7E1-4" edge="1">
          <mxGeometry width="50" height="50" relative="1" as="geometry">
            <mxPoint x="440" y="320" as="sourcePoint" />
            <mxPoint x="490" y="270" as="targetPoint" />
          </mxGeometry>
        </mxCell>
        <mxCell id="3sp6UGT6wka-jNeahweP-4" value="Perform calculations" style="rounded=0;whiteSpace=wrap;html=1;" parent="1" vertex="1">
          <mxGeometry x="485" y="325" width="65" height="35" as="geometry" />
        </mxCell>
        <mxCell id="3sp6UGT6wka-jNeahweP-5" value="" style="endArrow=none;html=1;rounded=0;exitX=0.5;exitY=0;exitDx=0;exitDy=0;entryX=1;entryY=1;entryDx=0;entryDy=0;" parent="1" source="3sp6UGT6wka-jNeahweP-4" target="PFokcVfNQXhYJK-jh7E1-4" edge="1">
          <mxGeometry width="50" height="50" relative="1" as="geometry">
            <mxPoint x="465" y="310" as="sourcePoint" />
            <mxPoint x="515" y="260" as="targetPoint" />
            <Array as="points">
              <mxPoint x="485" y="290" />
            </Array>
          </mxGeometry>
        </mxCell>
        <mxCell id="3sp6UGT6wka-jNeahweP-6" value="307" style="text;html=1;strokeColor=none;fillColor=none;align=center;verticalAlign=middle;whiteSpace=wrap;rounded=0;" parent="1" vertex="1">
          <mxGeometry x="422" y="297.75" width="60" height="30" as="geometry" />
        </mxCell>
        <mxCell id="3sp6UGT6wka-jNeahweP-7" value="308" style="text;html=1;strokeColor=none;fillColor=none;align=center;verticalAlign=middle;whiteSpace=wrap;rounded=0;" parent="1" vertex="1">
          <mxGeometry x="502" y="302.5" width="60" height="30" as="geometry" />
        </mxCell>
        <mxCell id="IZEKJRPSguyXrwGwLUW_-1" value="Close Files &amp;amp; end program" style="rounded=0;whiteSpace=wrap;html=1;" parent="1" vertex="1">
          <mxGeometry x="170" y="222.5" width="70" height="47.5" as="geometry" />
        </mxCell>
        <mxCell id="IZEKJRPSguyXrwGwLUW_-2" value="303" style="text;html=1;strokeColor=none;fillColor=none;align=center;verticalAlign=middle;whiteSpace=wrap;rounded=0;" parent="1" vertex="1">
          <mxGeometry x="200" y="200" width="60" height="30" as="geometry" />
        </mxCell>
        <mxCell id="IZEKJRPSguyXrwGwLUW_-7" value="" style="endArrow=none;html=1;rounded=0;exitX=0.5;exitY=0;exitDx=0;exitDy=0;entryX=1;entryY=1;entryDx=0;entryDy=0;" parent="1" source="IZEKJRPSguyXrwGwLUW_-1" target="PFokcVfNQXhYJK-jh7E1-3" edge="1">
          <mxGeometry width="50" height="50" relative="1" as="geometry">
            <mxPoint x="210" y="230" as="sourcePoint" />
            <mxPoint x="260" y="180" as="targetPoint" />
          </mxGeometry>
        </mxCell>
        <mxCell id="IZEKJRPSguyXrwGwLUW_-8" value="End Program" style="rounded=0;whiteSpace=wrap;html=1;" parent="1" vertex="1">
          <mxGeometry x="745" y="330" width="75" height="20" as="geometry" />
        </mxCell>
        <mxCell id="IZEKJRPSguyXrwGwLUW_-9" value="311" style="text;html=1;strokeColor=none;fillColor=none;align=center;verticalAlign=middle;whiteSpace=wrap;rounded=0;" parent="1" vertex="1">
          <mxGeometry x="757" y="306.75" width="60" height="30" as="geometry" />
        </mxCell>
        <mxCell id="IZEKJRPSguyXrwGwLUW_-10" value="" style="endArrow=none;html=1;rounded=0;exitX=0.168;exitY=-0.087;exitDx=0;exitDy=0;exitPerimeter=0;entryX=1;entryY=0.25;entryDx=0;entryDy=0;" parent="1" source="IZEKJRPSguyXrwGwLUW_-8" target="PFokcVfNQXhYJK-jh7E1-4" edge="1">
          <mxGeometry width="50" height="50" relative="1" as="geometry">
            <mxPoint x="730" y="280" as="sourcePoint" />
            <mxPoint x="780" y="230" as="targetPoint" />
          </mxGeometry>
        </mxCell>
        <mxCell id="IZEKJRPSguyXrwGwLUW_-11" value="Open files" style="rounded=0;whiteSpace=wrap;html=1;" parent="1" vertex="1">
          <mxGeometry x="830" y="267.75" width="45" height="30" as="geometry" />
        </mxCell>
        <mxCell id="IZEKJRPSguyXrwGwLUW_-13" value="312" style="text;html=1;strokeColor=none;fillColor=none;align=center;verticalAlign=middle;whiteSpace=wrap;rounded=0;" parent="1" vertex="1">
          <mxGeometry x="812" y="245.5" width="60" height="30" as="geometry" />
        </mxCell>
        <mxCell id="nRPIU3me93yMwHw7L8VR-4" value="" style="endArrow=none;html=1;rounded=0;exitX=0.5;exitY=0;exitDx=0;exitDy=0;entryX=0;entryY=1;entryDx=0;entryDy=0;" edge="1" parent="1" source="IZEKJRPSguyXrwGwLUW_-11" target="PFokcVfNQXhYJK-jh7E1-5">
          <mxGeometry width="50" height="50" relative="1" as="geometry">
            <mxPoint x="810" y="370" as="sourcePoint" />
            <mxPoint x="860" y="320" as="targetPoint" />
          </mxGeometry>
        </mxCell>
        <mxCell id="nRPIU3me93yMwHw7L8VR-5" value="Read file and call external program" style="rounded=0;whiteSpace=wrap;html=1;" vertex="1" parent="1">
          <mxGeometry x="883" y="270" width="77" height="50" as="geometry" />
        </mxCell>
        <mxCell id="nRPIU3me93yMwHw7L8VR-6" value="313" style="text;html=1;strokeColor=none;fillColor=none;align=center;verticalAlign=middle;whiteSpace=wrap;rounded=0;" vertex="1" parent="1">
          <mxGeometry x="891.5" y="249" width="60" height="30" as="geometry" />
        </mxCell>
        <mxCell id="nRPIU3me93yMwHw7L8VR-7" value="" style="endArrow=none;html=1;rounded=0;exitX=0.25;exitY=1;exitDx=0;exitDy=0;entryX=0.25;entryY=0;entryDx=0;entryDy=0;" edge="1" parent="1" source="PFokcVfNQXhYJK-jh7E1-5" target="nRPIU3me93yMwHw7L8VR-5">
          <mxGeometry width="50" height="50" relative="1" as="geometry">
            <mxPoint x="810" y="370" as="sourcePoint" />
            <mxPoint x="860" y="320" as="targetPoint" />
          </mxGeometry>
        </mxCell>
        <mxCell id="nRPIU3me93yMwHw7L8VR-8" value="Read file and call external program" style="rounded=0;whiteSpace=wrap;html=1;" vertex="1" parent="1">
          <mxGeometry x="970" y="267.75" width="77" height="50" as="geometry" />
        </mxCell>
        <mxCell id="nRPIU3me93yMwHw7L8VR-9" value="314" style="text;html=1;strokeColor=none;fillColor=none;align=center;verticalAlign=middle;whiteSpace=wrap;rounded=0;" vertex="1" parent="1">
          <mxGeometry x="990" y="245.5" width="60" height="30" as="geometry" />
        </mxCell>
        <mxCell id="nRPIU3me93yMwHw7L8VR-10" value="" style="endArrow=none;html=1;rounded=0;exitX=1;exitY=1;exitDx=0;exitDy=0;entryX=0.25;entryY=0;entryDx=0;entryDy=0;" edge="1" parent="1" source="PFokcVfNQXhYJK-jh7E1-5" target="nRPIU3me93yMwHw7L8VR-8">
          <mxGeometry width="50" height="50" relative="1" as="geometry">
            <mxPoint x="810" y="370" as="sourcePoint" />
            <mxPoint x="860" y="320" as="targetPoint" />
          </mxGeometry>
        </mxCell>
      </root>
    </mxGraphModel>
  </diagram>
</mxfile>
